<svg id="Capa_1" enable-background="new 0 0 512 512" height="512" viewBox="0 0 512 512" width="512" xmlns="http://www.w3.org/2000/svg"><g><path d="m504.5 126.984c4.143 0 7.5-3.358 7.5-7.5v-45.512c0-15.164-12.336-27.5-27.5-27.5h-457c-15.164 0-27.5 12.336-27.5 27.5v290.442c0 15.164 12.336 27.5 27.5 27.5h164.396v58.614h-22.642c-4.143 0-7.5 3.358-7.5 7.5s3.357 7.5 7.5 7.5h171.658c4.143 0 7.5-3.358 7.5-7.5s-3.357-7.5-7.5-7.5h-22.642v-58.614h166.23c15.164 0 27.5-12.336 27.5-27.5v-210.598c0-4.142-3.357-7.5-7.5-7.5s-7.5 3.358-7.5 7.5v156.21h-173.632c-4.143 0-7.5 3.358-7.5 7.5s3.357 7.5 7.5 7.5h173.632v39.388c0 6.893-5.607 12.5-12.5 12.5h-457c-6.893 0-12.5-5.607-12.5-12.5v-39.388h272.06c4.143 0 7.5-3.358 7.5-7.5s-3.357-7.5-7.5-7.5h-272.06v-236.054c0-6.893 5.607-12.5 12.5-12.5h165.95v32.891l-43.721 59.559c-3.022 4.117-7.161 7.203-11.968 8.925 0 0-5.594 2.041-6.148 2.299-3.395-8.13-11.426-13.86-20.772-13.86h-33.682c-12.406 0-22.5 10.093-22.5 22.5v16.218c0 4.142 3.357 7.5 7.5 7.5s7.5-3.358 7.5-7.5v-16.218c0-4.136 3.364-7.5 7.5-7.5h33.682c4.136 0 7.5 3.364 7.5 7.5v92.343c0 4.136-3.364 7.5-7.5 7.5h-33.682c-4.136 0-7.5-3.364-7.5-7.5v-40.688c0-4.142-3.357-7.5-7.5-7.5s-7.5 3.358-7.5 7.5v40.688c0 12.407 10.094 22.5 22.5 22.5h33.682c12.406 0 22.5-10.093 22.5-22.5v-16.312h46.326c3.044 12.208 14.099 21.282 27.236 21.282 7.975 0 15.361-3.338 20.571-8.955 5.21 5.616 12.598 8.955 20.571 8.955 7.975 0 15.361-3.338 20.571-8.955 5.21 5.616 12.598 8.955 20.571 8.955 7.975 0 15.361-3.338 20.571-8.955 5.21 5.616 12.598 8.955 20.571 8.955 13.138 0 24.192-9.074 27.236-21.282h21.092v16.312c0 12.407 10.094 22.5 22.5 22.5h33.682c12.406 0 22.5-10.093 22.5-22.5v-92.343c0-12.407-10.094-22.5-22.5-22.5h-33.682c-12.406 0-22.5 10.093-22.5 22.5v15.596h-20.257v-45.239c0-13.076-5.542-25.635-15.205-34.458-1.419-1.296-2.233-3.082-2.233-4.898v-43.315h143.538c6.893 0 12.5 5.607 12.5 12.5v45.512c0 4.142 3.357 7.5 7.5 7.5zm-201.229 323.544h-96.375v-58.614h96.375zm90.388-276.743c0-4.136 3.364-7.5 7.5-7.5h33.682c4.136 0 7.5 3.364 7.5 7.5v92.343c0 4.136-3.364 7.5-7.5 7.5h-33.682c-4.136 0-7.5-3.364-7.5-7.5zm-15 30.596v30.435h-20.257v-30.435zm-245.318 0h45.491v30.435h-45.491zm199.742-83.62c6.558 5.988 10.319 14.51 10.319 23.381v98.885c0 7.208-5.863 13.071-13.071 13.071-5.289 0-10.025-3.155-12.065-8.039-1.432-3.426-4.771-5.64-8.506-5.64s-7.074 2.214-8.507 5.64c-2.039 4.883-6.775 8.039-12.064 8.039s-10.025-3.155-12.065-8.039c-1.432-3.426-4.771-5.64-8.506-5.64s-7.074 2.214-8.506 5.64c-2.04 4.883-6.776 8.039-12.065 8.039s-10.025-3.155-12.065-8.039c-1.432-3.426-4.771-5.64-8.506-5.64s-7.074 2.214-8.506 5.64c-2.04 4.883-6.776 8.039-12.065 8.039-7.208 0-13.071-5.864-13.071-13.071v-78.242c0-4.142-3.357-7.5-7.5-7.5s-7.5 3.358-7.5 7.5v12.889c-10.942 7.573-24.099 11.708-37.434 11.708-3.434.424-6.747-1.976-6.717-5.574 0-2.347 1.484-4.457 3.693-5.248l4.444-1.592c7.633-2.734 14.204-7.634 19.002-14.17l44.787-61.012c1.205-1.642 1.842-3.585 1.842-5.622v-34.692h117.514v43.314c-.001 6.021 2.594 11.843 7.118 15.975z"/></g></svg>